<?xml version="1.0" encoding="UTF-8"?>
<svg xmlns="http://www.w3.org/2000/svg" xmlns:se="https://standardebooks.org/vocab/1.0" version="1.1" viewBox="0 0 1400 340" se:generated-from="22969990ebde412d728ab4cff4f7c2845eca0a64">
	<path d="m 192.54536,51.404756 -17.59116,0 0,77.195254 17.59116,0 0,-77.195254 z"/>
	<path d="m 208.82931,51.404756 0,77.195254 22.36323,0 c 21.24039,0 38.92512,-16.09404 38.92512,-38.644414 0,-22.4568 -17.7783,-38.55084 -38.92512,-38.55084 l -22.36323,0 z m 17.59116,61.475494 0,-45.755734 2.71353,0 c 13.0998,0 21.98895,10.01199 21.98895,22.92465 -0.0936,12.912664 -8.98272,22.831084 -21.98895,22.831084 l -2.71353,0 z"/>
	<path d="m 266.08231,51.404756 28.44528,42.57435 0,34.620904 17.59116,0 0,-34.620904 28.44528,-42.57435 -21.14682,0 -16.09404,24.70248 -16.09404,-24.70248 -21.14682,0 z"/>
	<path d="m 365.99299,51.404756 -17.59116,0 0,77.195254 44.16504,0 0,-15.43905 -26.57388,0 0,-61.756204 z"/>
	<path d="m 423.80888,51.404756 -17.59116,0 0,77.195254 44.16504,0 0,-15.43905 -26.57388,0 0,-61.756204 z"/>
	<path d="m 492.47888,50.001206 c -12.44481,0 -25.17033,9.16986 -25.17033,23.57964 0,8.04702 5.42706,15.25191 14.69049,19.83684 9.16986,4.58493 17.40402,7.111324 17.40402,12.725524 0,7.20489 -7.29846,7.57917 -11.13483,7.57917 -8.60844,0 -18.90114,-8.70201 -18.90114,-8.70201 l -8.79558,14.78406 c 0,0 10.94769,10.19913 29.0067,10.19913 15.06477,0 29.10027,-6.45633 29.10027,-24.88962 0,-10.105564 -9.45057,-17.404024 -18.05901,-21.053254 -8.79558,-3.7428 -16.09404,-6.83061 -16.09404,-11.13483 0,-4.21065 3.18138,-6.92418 9.16986,-6.92418 7.95345,0 15.62619,5.33349 15.62619,5.33349 l 7.11132,-14.0355 c 0,0 -9.91842,-7.29846 -23.95392,-7.29846 z"/>
	<path d="m 559.02439,89.955596 c 0,22.550374 16.09404,40.047964 38.92512,40.047964 22.17609,0 38.83155,-17.49759 38.83155,-40.047964 0,-22.55037 -17.40402,-39.95439 -38.83155,-39.95439 -21.24039,0 -38.92512,17.40402 -38.92512,39.95439 z m 18.99471,0 c 0,-11.50911 6.36276,-23.01822 19.93041,-23.01822 13.66122,0 19.83684,11.50911 19.83684,23.01822 0,11.509114 -5.80134,23.018224 -19.83684,23.018224 -14.40978,0 -19.93041,-11.50911 -19.93041,-23.018224 z"/>
	<path d="m 694.17589,51.404756 -44.63289,0 0,77.195254 17.59116,0 0,-30.971674 24.98319,0 0,-15.43905 -24.98319,0 0,-15.34548 27.04173,0 0,-15.43905 z"/>
	<path d="m 728.69268,66.843806 18.33972,0 0,61.756204 17.59116,0 0,-61.756204 18.33972,0 0,-15.43905 -54.2706,0 0,15.43905 z"/>
	<path d="m 811.88941,97.628336 24.88962,0 0,30.971674 17.59116,0 0,-77.195254 -17.59116,0 0,30.78453 -24.88962,0 0,-30.78453 -17.59116,0 0,77.195254 17.59116,0 0,-30.971674 z"/>
	<path d="m 914.73734,51.404756 -44.16504,0 0,77.195254 44.16504,0 0,-15.43905 -26.57388,0 0,-15.532624 25.45104,0 0,-15.43905 -25.45104,0 0,-15.34548 26.57388,0 0,-15.43905 z"/>
	<path d="m 1030.7068,128.60001 -35.93085,-40.609384 31.06525,-36.58587 -21.334,0 -26.48028,31.53309 0,-31.53309 -17.59116,0 0,77.195254 17.59116,0 0,-32.749504 28.44528,32.749504 24.2346,0 z"/>
	<path d="m 1056.6767,51.404756 -17.5912,0 0,77.195254 17.5912,0 0,-77.195254 z"/>
	<path d="m 1090.5518,80.692166 0.1872,0 30.6909,47.907844 17.5912,0 0,-77.195254 -17.5912,0 0,47.90784 -0.1871,0 -30.691,-47.90784 -17.5911,0 0,77.195254 17.5911,0 0,-47.907844 z"/>
	<path d="m 1225.0688,85.370666 -35.6502,0 0,13.56765 17.7783,0 c 0,9.450574 -8.3277,14.877634 -16.749,14.877634 -10.8541,0 -19.6497,-10.66698 -19.6497,-23.766784 0,-13.38051 8.7956,-24.14106 19.6497,-24.14106 6.8306,0 12.7255,2.71353 17.2169,9.91842 l 11.5091,-12.63195 c -6.737,-8.14059 -16.1876,-13.19337 -29.7553,-13.19337 -21.7082,0 -37.6151,17.87187 -37.6151,40.04796 0,22.082524 16.8426,39.954394 37.6151,39.954394 15.1584,0 31.4396,-8.32773 35.6502,-27.88386 l 0,-16.749034 z"/>
	<path d="m 213.23622,231.05151 -12.21132,0 -23.36994,57.8985 14.17636,0 4.28098,-11.5797 22.03652,0 4.28098,11.5797 14.17636,0 -23.36994,-57.8985 z m 0.42108,34.7391 -13.05348,0 6.45656,-16.8432 0.14036,0 6.45656,16.8432 z"/>
	<path d="m 256.98983,231.05151 -13.19384,0 0,57.8985 33.12496,0 0,-11.5797 -19.93112,0 0,-46.3188 z"/>
	<path d="m 321.88517,231.05151 -33.47586,0 0,57.8985 13.19384,0 0,-23.22958 18.73806,0 0,-11.5797 -18.73806,0 0,-11.50952 20.28202,0 0,-11.5797 z"/>
	<path d="m 333.1597,231.05151 0,57.8985 13.19384,0 0,-22.87868 17.68536,22.87868 16.77302,0 -19.93112,-23.93138 c 7.08818,-2.24576 11.86042,-8.0707 11.86042,-16.77302 0,-11.36916 -8.14088,-17.1941 -18.87842,-17.1941 l -20.7031,0 z m 13.19384,25.68588 0,-15.15888 1.54396,0 c 4.98278,0 10.94808,0.3509 10.94808,7.57944 0,7.22854 -5.9653,7.57944 -10.94808,7.57944 l -1.54396,0 z"/>
	<path d="m 421.58947,231.05151 -33.12496,0 0,57.8985 33.12496,0 0,-11.5797 -19.93112,0 0,-11.64988 19.08896,0 0,-11.5797 -19.08896,0 0,-11.50952 19.93112,0 0,-11.5797 z"/>
	<path d="m 434.17439,231.05151 0,57.8985 16.77302,0 c 15.93086,0 29.19488,-12.07096 29.19488,-28.98434 0,-16.8432 -13.3342,-28.91416 -29.19488,-28.91416 l -16.77302,0 z m 13.19384,46.10826 0,-34.31802 2.03522,0 c 9.8252,0 16.4923,7.50926 16.4923,17.1941 -0.0702,9.68484 -6.73728,17.12392 -16.4923,17.12392 l -2.03522,0 z"/>
	<path d="m 498.9875,273.93149 c -4.42134,0 -8.00052,3.57918 -8.00052,8.0707 0,3.71954 2.59666,6.52674 6.03548,7.3689 -1.12288,5.82494 -5.33368,9.8252 -5.33368,9.8252 l 3.57918,2.94756 c 5.75476,-4.77224 11.79024,-11.64988 11.79024,-20.14166 0,-4.49152 -3.57918,-8.0707 -8.0707,-8.0707 z"/>
	<path d="m 557.90623,231.05151 -13.19384,0 0,57.8985 33.12496,0 0,-11.5797 -19.93112,0 0,-46.3188 z"/>
	<path d="m 586.72907,259.96567 c 0,16.91338 12.07096,30.03704 29.19488,30.03704 16.63266,0 29.1247,-13.12366 29.1247,-30.03704 0,-16.91338 -13.05348,-29.96686 -29.1247,-29.96686 -15.93086,0 -29.19488,13.05348 -29.19488,29.96686 z m 14.24654,0 c 0,-8.63214 4.77224,-17.26428 14.94834,-17.26428 10.24628,0 14.87816,8.63214 14.87816,17.26428 0,8.63214 -4.35116,17.26428 -14.87816,17.26428 -10.80772,0 -14.94834,-8.63214 -14.94834,-17.26428 z"/>
	<path d="m 655.87028,231.05151 0,57.8985 13.19384,0 0,-22.87868 17.68537,22.87868 16.77302,0 -19.93112,-23.93138 c 7.08818,-2.24576 11.86042,-8.0707 11.86042,-16.77302 0,-11.36916 -8.14088,-17.1941 -18.87843,-17.1941 l -20.7031,0 z m 13.19384,25.68588 0,-15.15888 1.54396,0 c 4.98278,0 10.94808,0.3509 10.94808,7.57944 0,7.22854 -5.9653,7.57944 -10.94808,7.57944 l -1.54396,0 z"/>
	<path d="m 711.17509,231.05151 0,57.8985 16.77302,0 c 15.93086,0 29.19488,-12.07096 29.19488,-28.98434 0,-16.8432 -13.3342,-28.91416 -29.19488,-28.91416 l -16.77302,0 z m 13.19384,46.10826 0,-34.31802 2.03522,0 c 9.8252,0 16.4923,7.50926 16.4923,17.1941 -0.0702,9.68484 -6.73728,17.12392 -16.4923,17.12392 l -2.03522,0 z"/>
	<path d="m 785.10142,242.63121 13.75528,0 0,46.3188 13.19384,0 0,-46.3188 13.75528,0 0,-11.5797 -40.7044,0 0,11.5797 z"/>
	<path d="m 868.6822,231.05151 -33.12496,0 0,57.8985 33.12496,0 0,-11.5797 -19.93112,0 0,-11.64988 19.08896,0 0,-11.5797 -19.08896,0 0,-11.50952 19.93112,0 0,-11.5797 z"/>
	<path d="m 894.46091,253.01785 0.14036,0 23.01904,35.93216 13.19384,0 0,-57.8985 -13.19384,0 0,35.93216 -0.14036,0 -23.01904,-35.93216 -13.19384,0 0,57.8985 13.19384,0 0,-35.93216 z"/>
	<path d="m 957.44169,253.01785 0.14036,0 23.01904,35.93216 13.19384,0 0,-57.8985 -13.19384,0 0,35.93216 -0.14036,0 -23.01904,-35.93216 -13.19384,0 0,57.8985 13.19384,0 0,-35.93216 z"/>
	<path d="m 994.60712,231.05151 21.33468,31.9319 0,25.9666 13.1939,0 0,-25.9666 21.3347,-31.9319 -15.8607,0 -12.0709,18.52752 -12.071,-18.52752 -15.86068,0 z"/>
	<path d="m 1075.5068,229.99881 c -9.3339,0 -18.8784,6.87764 -18.8784,17.68536 0,6.03548 4.0704,11.43934 11.0183,14.87816 6.8776,3.43882 13.0534,5.33368 13.0534,9.54448 0,5.40386 -5.474,5.68458 -8.3514,5.68458 -6.4565,0 -14.1763,-6.52674 -14.1763,-6.52674 l -6.597,11.08844 c 0,0 8.2111,7.64962 21.7558,7.64962 11.299,0 21.826,-4.84242 21.826,-18.66788 0,-7.57944 -7.0882,-13.05348 -13.5447,-15.7905 -6.5969,-2.8072 -12.071,-5.12314 -12.071,-8.35142 0,-3.1581 2.3861,-5.19332 6.8777,-5.19332 5.9653,0 11.72,4.00026 11.72,4.00026 l 5.3337,-10.527 c 0,0 -7.4391,-5.47404 -17.9661,-5.47404 z"/>
	<path d="m 1103.7276,259.96567 c 0,16.91338 12.071,30.03704 29.1949,30.03704 16.6326,0 29.1247,-13.12366 29.1247,-30.03704 0,-16.91338 -13.0535,-29.96686 -29.1247,-29.96686 -15.9309,0 -29.1949,13.05348 -29.1949,29.96686 z m 14.2465,0 c 0,-8.63214 4.7723,-17.26428 14.9484,-17.26428 10.2463,0 14.8781,8.63214 14.8781,17.26428 0,8.63214 -4.3511,17.26428 -14.8781,17.26428 -10.8077,0 -14.9484,-8.63214 -14.9484,-17.26428 z"/>
	<path d="m 1186.0627,253.01785 0.1403,0 23.0191,35.93216 13.1938,0 0,-57.8985 -13.1938,0 0,35.93216 -0.1404,0 -23.019,-35.93216 -13.1939,0 0,57.8985 13.1939,0 0,-35.93216 z"/>
</svg>
