<?xml version="1.0" encoding="utf-8"?>
<svg xmlns="http://www.w3.org/2000/svg" xmlns:svg="http://www.w3.org/2000/svg" version="1.1" viewBox="0 0 1400 340">
	<title>The titlepage for the Standard Ebooks edition of Idylls of the King, by Alfred, Lord Tennyson</title>
	<g aria-label="IDYLLS OF THE KING">
		<path d="M 194.31944,52.807016 H 176.72879 V 130 h 17.59065 z"/>
		<path d="M 210.60306,52.807016 V 130 h 22.36257 c 21.23977,0 38.92398,-16.09357 38.92398,-38.643276 0,-22.45614 -17.77778,-38.549708 -38.92398,-38.549708 z M 228.1937,114.2807 V 68.526315 h 2.71345 c 13.09942,0 21.98831,10.011696 21.98831,22.923977 -0.0936,12.912278 -8.98246,22.830408 -21.98831,22.830408 z"/>
		<path d="m 267.85452,52.807016 28.44445,42.5731 V 130 h 17.59064 V 95.380116 l 28.44445,-42.5731 h -21.1462 L 305.09429,77.508771 289.00072,52.807016 Z"/>
		<path d="M 367.76243,52.807016 H 350.17179 V 130 h 44.16374 v -15.4386 h -26.5731 z"/>
		<path d="M 425.57675,52.807016 H 407.9861 V 130 h 44.16375 v -15.4386 h -26.5731 z"/>
		<path d="m 494.24489,51.403507 c -12.44444,0 -25.16959,9.169591 -25.16959,23.578948 0,8.046784 5.4269,15.251462 14.69006,19.836258 9.16959,4.584795 17.40351,7.111107 17.40351,12.725147 0,7.20468 -7.29825,7.57895 -11.1345,7.57895 -8.60819,0 -18.90059,-8.70176 -18.90059,-8.70176 l -8.79532,14.78363 c 0,0 10.94737,10.19883 29.00585,10.19883 15.06433,0 29.09941,-6.45614 29.09941,-24.88889 0,-10.105264 -9.45029,-17.40351 -18.05848,-21.052632 -8.79532,-3.742691 -16.09356,-6.83041 -16.09356,-11.134504 0,-4.210526 3.18128,-6.923976 9.16959,-6.923976 7.95321,0 15.62573,5.333333 15.62573,5.333333 l 7.11111,-14.035088 c 0,0 -9.91813,-7.298246 -23.95322,-7.298246 z"/>
		<path d="m 560.78875,91.356724 c 0,22.549706 16.09356,40.046786 38.92397,40.046786 22.17544,0 38.83041,-17.49708 38.83041,-40.046786 0,-22.549708 -17.40351,-39.953217 -38.83041,-39.953217 -21.23976,0 -38.92397,17.403509 -38.92397,39.953217 z m 18.99415,0 c 0,-11.508772 6.36257,-23.017544 19.92982,-23.017544 13.66082,0 19.83626,11.508772 19.83626,23.017544 0,11.508776 -5.80117,23.017546 -19.83626,23.017546 -14.40935,0 -19.92982,-11.50877 -19.92982,-23.017546 z"/>
		<path d="M 695.93639,52.807016 H 651.30481 V 130 h 17.59065 V 99.029239 h 24.98245 V 83.590642 H 668.89546 V 68.245613 h 27.04093 z"/>
		<path d="m 730.45247,68.245613 h 18.33918 V 130 h 17.59064 V 68.245613 h 18.33918 V 52.807016 h -54.269 z"/>
		<path d="m 813.64695,99.029239 h 24.88889 V 130 h 17.59064 V 52.807016 H 838.53584 V 83.590642 H 813.64695 V 52.807016 H 796.05631 V 130 h 17.59064 z"/>
		<path d="M 916.49196,52.807016 H 872.32822 V 130 h 44.16374 v -15.4386 h -26.5731 V 99.029239 h 25.4503 V 83.590642 h -25.4503 V 68.245613 h 26.5731 z"/>
		<path d="M 1032.4583,130 996.52848,89.391812 1027.5928,52.807016 h -21.3333 L 979.77995,84.33918 V 52.807016 H 962.1893 V 130 h 17.59065 V 97.251461 L 1008.2244,130 Z"/>
		<path d="M 1058.4277,52.807016 H 1040.837 V 130 h 17.5907 z"/>
		<path d="m 1092.3019,82.093566 h 0.1872 L 1123.1791,130 h 17.5907 V 52.807016 h -17.5907 v 47.906434 h -0.1871 l -30.6901,-47.906434 h -17.5906 V 130 h 17.5906 z"/>
		<path d="m 1226.8151,86.771929 h -35.6492 v 13.567251 h 17.7778 c 0,9.45029 -8.3275,14.87719 -16.7485,14.87719 -10.8538,0 -19.6491,-10.66666 -19.6491,-23.766078 0,-13.380117 8.7953,-24.140352 19.6491,-24.140352 6.8304,0 12.7251,2.713451 17.2163,9.918129 l 11.5088,-12.631579 c -6.7368,-8.140351 -16.1871,-13.192983 -29.7544,-13.192983 -21.7076,0 -37.614,17.871346 -37.614,40.046785 0,22.081868 16.8421,39.953218 37.614,39.953218 15.1579,0 31.4386,-8.32749 35.6492,-27.88304 z"/>
	</g>
	<g aria-label="ALFRED, LORD TENNYSON">
		<path d="M 210.13542,232.10526 H 197.92489 L 174.55647,290 h 14.17544 l 4.2807,-11.57895 H 215.0477 L 219.3284,290 h 14.17544 z m 0.42105,34.73685 H 197.50384 L 203.95998,250 h 0.14035 z"/>
		<path d="M 253.88652,232.10526 H 240.69354 V 290 h 33.1228 v -11.57895 h -19.92982 z"/>
		<path d="M 318.77797,232.10526 H 285.30428 V 290 h 13.19299 v -23.22807 h 18.73684 v -11.57895 h -18.73684 v -11.50877 h 20.2807 z"/>
		<path d="M 330.05209,232.10526 V 290 h 13.19298 V 267.12281 L 360.92928,290 h 16.77193 l -19.92982,-23.92982 c 7.08771,-2.24562 11.85964,-8.07018 11.85964,-16.77193 0,-11.36842 -8.14035,-17.19299 -18.87719,-17.19299 z m 13.19298,25.68421 v -15.15789 h 1.54386 c 4.98246,0 10.94737,0.35088 10.94737,7.57895 0,7.22807 -5.96491,7.57894 -10.94737,7.57894 z"/>
		<path d="m 418.47642,232.10526 h -33.1228 V 290 h 33.1228 V 278.42105 H 398.5466 v -11.64912 h 19.08772 V 255.19298 H 398.5466 v -11.50877 h 19.92982 z"/>
		<path d="M 431.06086,232.10526 V 290 h 16.77193 c 15.92983,0 29.19298,-12.07018 29.19298,-28.98246 0,-16.8421 -13.33333,-28.91228 -29.19298,-28.91228 z m 13.19298,46.10527 v -34.31579 h 2.03509 c 9.82456,0 16.49123,7.50877 16.49123,17.19298 -0.0702,9.68421 -6.73684,17.12281 -16.49123,17.12281 z"/>
		<path d="m 495.87007,274.98246 c -4.42106,0 -8,3.57894 -8,8.07017 0,3.7193 2.59649,6.52632 6.03508,7.36842 -1.1228,5.82456 -5.33333,9.82456 -5.33333,9.82456 l 3.57895,2.94737 c 5.75438,-4.77193 11.78947,-11.64912 11.78947,-20.14035 0,-4.49123 -3.57895,-8.07017 -8.07017,-8.07017 z"/>
		<path d="M 554.78564,232.10526 H 541.59266 V 290 h 33.12281 v -11.57895 h -19.92983 z"/>
		<path d="m 583.60692,261.01754 c 0,16.91228 12.07017,30.03509 29.19298,30.03509 16.63158,0 29.12281,-13.12281 29.12281,-30.03509 0,-16.91228 -13.05263,-29.96491 -29.12281,-29.96491 -15.92982,0 -29.19298,13.05263 -29.19298,29.96491 z m 14.24561,0 c 0,-8.63157 4.77193,-17.26315 14.94737,-17.26315 10.24561,0 14.87719,8.63158 14.87719,17.26315 0,8.63158 -4.35087,17.26316 -14.87719,17.26316 -10.80702,0 -14.94737,-8.63158 -14.94737,-17.26316 z"/>
		<path d="M 652.74397,232.10526 V 290 h 13.19298 V 267.12281 L 683.62116,290 h 16.77193 l -19.92983,-23.92982 c 7.08772,-2.24562 11.85965,-8.07018 11.85965,-16.77193 0,-11.36842 -8.14035,-17.19299 -18.87719,-17.19299 z m 13.19298,25.68421 v -15.15789 h 1.54386 c 4.98245,0 10.94737,0.35088 10.94737,7.57895 0,7.22807 -5.96492,7.57894 -10.94737,7.57894 z"/>
		<path d="M 708.04551,232.10526 V 290 h 16.77193 c 15.92983,0 29.19298,-12.07018 29.19298,-28.98246 0,-16.8421 -13.33333,-28.91228 -29.19298,-28.91228 z m 13.19298,46.10527 v -34.31579 h 2.03509 c 9.82456,0 16.49123,7.50877 16.49123,17.19298 -0.0702,9.68421 -6.73684,17.12281 -16.49123,17.12281 z"/>
		<path d="m 781.96768,243.68421 h 13.75438 V 290 h 13.19299 v -46.31579 h 13.75438 v -11.57895 h -40.70175 z"/>
		<path d="M 865.54332,232.10526 H 832.42051 V 290 h 33.12281 v -11.57895 h -19.92983 v -11.64912 h 19.08772 v -11.57895 h -19.08772 v -11.50877 h 19.92983 z"/>
		<path d="m 891.32071,254.07018 h 0.14035 L 914.4786,290 h 13.19298 V 232.10526 H 914.4786 v 35.92983 h -0.14035 L 891.32071,232.10526 H 878.12773 V 290 h 13.19298 z"/>
		<path d="m 954.2977,254.07018 h 0.14035 L 977.45559,290 h 13.19298 v -57.89474 h -13.19298 v 35.92983 h -0.14035 L 954.2977,232.10526 H 941.10472 V 290 h 13.19298 z"/>
		<path d="m 991.46104,232.10526 21.33336,31.92983 V 290 h 13.193 v -25.96491 l 21.3333,-31.92983 h -15.8597 l -12.0701,18.52632 -12.0702,-18.52632 z"/>
		<path d="m 1072.3558,231.05263 c -9.3333,0 -18.8772,6.8772 -18.8772,17.68421 0,6.03509 4.0702,11.4386 11.0176,14.8772 6.8772,3.43859 13.0526,5.33333 13.0526,9.54385 0,5.40351 -5.4737,5.68422 -8.3509,5.68422 -6.4561,0 -14.1754,-6.52632 -14.1754,-6.52632 l -6.5965,11.08772 c 0,0 8.2105,7.64912 21.7544,7.64912 11.2982,0 21.8246,-4.8421 21.8246,-18.66666 0,-7.57895 -7.0878,-13.05264 -13.5439,-15.78948 -6.5965,-2.80702 -12.0702,-5.12281 -12.0702,-8.35088 0,-3.15789 2.386,-5.19298 6.8772,-5.19298 5.9649,0 11.7193,4 11.7193,4 l 5.3333,-10.52631 c 0,0 -7.4386,-5.47369 -17.9649,-5.47369 z"/>
		<path d="m 1100.5751,261.01754 c 0,16.91228 12.0702,30.03509 29.193,30.03509 16.6316,0 29.1228,-13.12281 29.1228,-30.03509 0,-16.91228 -13.0526,-29.96491 -29.1228,-29.96491 -15.9298,0 -29.193,13.05263 -29.193,29.96491 z m 14.2456,0 c 0,-8.63157 4.772,-17.26315 14.9474,-17.26315 10.2456,0 14.8772,8.63158 14.8772,17.26315 0,8.63158 -4.3509,17.26316 -14.8772,17.26316 -10.807,0 -14.9474,-8.63158 -14.9474,-17.26316 z"/>
		<path d="m 1182.9052,254.07018 h 0.1403 L 1206.0631,290 h 13.193 v -57.89474 h -13.193 v 35.92983 h -0.1404 l -23.0175,-35.92983 h -13.193 V 290 h 13.193 z"/>
	</g>
</svg>
